<?xml version="1.0"?>
<svg xmlns="http://www.w3.org/2000/svg" width="1024" height="1024" viewBox="0 0 1024 1024">
  <title>MCRC — App Icon</title>
  <defs>
    <radialGradient id="bg" cx="72%" cy="12%" r="120%">
      <stop offset="0%" stop-color="#1c4877"></stop>
      <stop offset="55%" stop-color="#0e2a45"></stop>
      <stop offset="100%" stop-color="#0a2138"></stop>
    </radialGradient>
  </defs>
  <rect x="0" y="0" width="1024" height="1024" rx="228" ry="228" fill="url(#bg)"></rect>
  <g transform="translate(232,230) scale(4.667)">
    <path d="M60 8 L103 23 L103 58 C103 85 84 103 60 113 C36 103 17 85 17 58 L17 23 Z" fill="rgba(255,255,255,0.06)"></path>
    <path d="M60 18 L95 30 L95 58 C95 80 80 95 60 103 C40 95 25 80 25 58 L25 30 Z" stroke="rgba(230,200,124,.5)" stroke-width="1.6" fill="none"></path>
    <path d="M42 81 L60 71 L78 81" stroke="#c79433" stroke-width="8.5" stroke-linecap="round" stroke-linejoin="round" fill="none"></path>
    <path d="M45 59 L60 50 L75 59" stroke="#dcab46" stroke-width="8.5" stroke-linecap="round" stroke-linejoin="round" fill="none"></path>
    <path d="M48 38 L60 30 L72 38" stroke="#efd084" stroke-width="8.5" stroke-linecap="round" stroke-linejoin="round" fill="none"></path>
  </g>
</svg>