<?xml version="1.0"?>
<svg xmlns="http://www.w3.org/2000/svg" width="240" height="240" viewBox="0 0 120 120">
  <title>MCRC — Shield + Ascent (light / reversed)</title>
  <path d="M60 8 L103 23 L103 58 C103 85 84 103 60 113 C36 103 17 85 17 58 L17 23 Z" fill="#f6f2ea"></path>
  <path d="M60 18 L95 30 L95 58 C95 80 80 95 60 103 C40 95 25 80 25 58 L25 30 Z" fill="none" stroke="#c8a24a" stroke-width="1.6"></path>
  <path d="M42 81 L60 71 L78 81" fill="none" stroke="#c0902f" stroke-width="8.5" stroke-linecap="round" stroke-linejoin="round"></path>
  <path d="M45 59 L60 50 L75 59" fill="none" stroke="#d8a943" stroke-width="8.5" stroke-linecap="round" stroke-linejoin="round"></path>
  <path d="M48 38 L60 30 L72 38" fill="none" stroke="#ecd08a" stroke-width="8.5" stroke-linecap="round" stroke-linejoin="round"></path>
</svg>